<mxfile host="app.diagrams.net" modified="2020-10-23T06:51:28.911Z" agent="5.0 (Windows NT 10.0; Win64; x64) AppleWebKit/537.36 (KHTML, like Gecko) Chrome/86.0.4240.111 Safari/537.36" etag="kM_qxPUWCEmcOYRxcjLI" version="13.8.1" type="github">
  <diagram id="V7F1kGEVR4_wdAogc3ji" name="Page-1">
    <mxGraphModel dx="1422" dy="794" grid="1" gridSize="10" guides="1" tooltips="1" connect="1" arrows="1" fold="1" page="1" pageScale="1" pageWidth="827" pageHeight="1169" math="0" shadow="0">
      <root>
        <mxCell id="0" />
        <mxCell id="1" parent="0" />
        <mxCell id="0cMiXbIXL-sGUxjxl8f0-14" style="edgeStyle=orthogonalEdgeStyle;rounded=0;orthogonalLoop=1;jettySize=auto;html=1;exitX=1;exitY=0.5;exitDx=0;exitDy=0;entryX=0;entryY=0.5;entryDx=0;entryDy=0;" edge="1" parent="1" source="0cMiXbIXL-sGUxjxl8f0-1" target="0cMiXbIXL-sGUxjxl8f0-2">
          <mxGeometry relative="1" as="geometry" />
        </mxCell>
        <mxCell id="0cMiXbIXL-sGUxjxl8f0-1" value="B" style="ellipse;whiteSpace=wrap;html=1;aspect=fixed;" vertex="1" parent="1">
          <mxGeometry x="100" y="305" width="30" height="30" as="geometry" />
        </mxCell>
        <mxCell id="0cMiXbIXL-sGUxjxl8f0-15" style="edgeStyle=orthogonalEdgeStyle;rounded=0;orthogonalLoop=1;jettySize=auto;html=1;exitX=1;exitY=0.5;exitDx=0;exitDy=0;entryX=0;entryY=0.5;entryDx=0;entryDy=0;" edge="1" parent="1" source="0cMiXbIXL-sGUxjxl8f0-2" target="0cMiXbIXL-sGUxjxl8f0-3">
          <mxGeometry relative="1" as="geometry" />
        </mxCell>
        <mxCell id="0cMiXbIXL-sGUxjxl8f0-16" style="edgeStyle=orthogonalEdgeStyle;rounded=0;orthogonalLoop=1;jettySize=auto;html=1;entryX=0;entryY=0.5;entryDx=0;entryDy=0;" edge="1" parent="1" source="0cMiXbIXL-sGUxjxl8f0-2" target="0cMiXbIXL-sGUxjxl8f0-8">
          <mxGeometry relative="1" as="geometry" />
        </mxCell>
        <mxCell id="0cMiXbIXL-sGUxjxl8f0-2" value="C" style="ellipse;whiteSpace=wrap;html=1;aspect=fixed;" vertex="1" parent="1">
          <mxGeometry x="170" y="305" width="30" height="30" as="geometry" />
        </mxCell>
        <mxCell id="0cMiXbIXL-sGUxjxl8f0-17" style="edgeStyle=orthogonalEdgeStyle;rounded=0;orthogonalLoop=1;jettySize=auto;html=1;entryX=0;entryY=0.5;entryDx=0;entryDy=0;" edge="1" parent="1" source="0cMiXbIXL-sGUxjxl8f0-3" target="0cMiXbIXL-sGUxjxl8f0-5">
          <mxGeometry relative="1" as="geometry" />
        </mxCell>
        <mxCell id="0cMiXbIXL-sGUxjxl8f0-3" value="C" style="ellipse;whiteSpace=wrap;html=1;aspect=fixed;" vertex="1" parent="1">
          <mxGeometry x="245" y="250" width="30" height="30" as="geometry" />
        </mxCell>
        <mxCell id="0cMiXbIXL-sGUxjxl8f0-18" style="edgeStyle=orthogonalEdgeStyle;rounded=0;orthogonalLoop=1;jettySize=auto;html=1;exitX=1;exitY=0.5;exitDx=0;exitDy=0;entryX=0;entryY=0.5;entryDx=0;entryDy=0;" edge="1" parent="1" source="0cMiXbIXL-sGUxjxl8f0-5" target="0cMiXbIXL-sGUxjxl8f0-10">
          <mxGeometry relative="1" as="geometry" />
        </mxCell>
        <mxCell id="0cMiXbIXL-sGUxjxl8f0-5" value="C" style="ellipse;whiteSpace=wrap;html=1;aspect=fixed;" vertex="1" parent="1">
          <mxGeometry x="320" y="250" width="30" height="30" as="geometry" />
        </mxCell>
        <mxCell id="0cMiXbIXL-sGUxjxl8f0-20" style="edgeStyle=orthogonalEdgeStyle;rounded=0;orthogonalLoop=1;jettySize=auto;html=1;exitX=1;exitY=0.5;exitDx=0;exitDy=0;entryX=0;entryY=0.5;entryDx=0;entryDy=0;" edge="1" parent="1" source="0cMiXbIXL-sGUxjxl8f0-8" target="0cMiXbIXL-sGUxjxl8f0-9">
          <mxGeometry relative="1" as="geometry" />
        </mxCell>
        <mxCell id="0cMiXbIXL-sGUxjxl8f0-8" value="B" style="ellipse;whiteSpace=wrap;html=1;aspect=fixed;" vertex="1" parent="1">
          <mxGeometry x="245" y="360" width="30" height="30" as="geometry" />
        </mxCell>
        <mxCell id="0cMiXbIXL-sGUxjxl8f0-21" style="edgeStyle=orthogonalEdgeStyle;rounded=0;orthogonalLoop=1;jettySize=auto;html=1;exitX=1;exitY=0.5;exitDx=0;exitDy=0;entryX=0;entryY=0.5;entryDx=0;entryDy=0;" edge="1" parent="1" source="0cMiXbIXL-sGUxjxl8f0-9" target="0cMiXbIXL-sGUxjxl8f0-11">
          <mxGeometry relative="1" as="geometry" />
        </mxCell>
        <mxCell id="0cMiXbIXL-sGUxjxl8f0-9" value="C" style="ellipse;whiteSpace=wrap;html=1;aspect=fixed;" vertex="1" parent="1">
          <mxGeometry x="320" y="360" width="30" height="30" as="geometry" />
        </mxCell>
        <mxCell id="0cMiXbIXL-sGUxjxl8f0-19" style="edgeStyle=orthogonalEdgeStyle;rounded=0;orthogonalLoop=1;jettySize=auto;html=1;exitX=1;exitY=0.5;exitDx=0;exitDy=0;entryX=0;entryY=0.5;entryDx=0;entryDy=0;" edge="1" parent="1" source="0cMiXbIXL-sGUxjxl8f0-10" target="0cMiXbIXL-sGUxjxl8f0-12">
          <mxGeometry relative="1" as="geometry" />
        </mxCell>
        <mxCell id="0cMiXbIXL-sGUxjxl8f0-10" value="C" style="ellipse;whiteSpace=wrap;html=1;aspect=fixed;" vertex="1" parent="1">
          <mxGeometry x="398.5" y="250" width="30" height="30" as="geometry" />
        </mxCell>
        <mxCell id="0cMiXbIXL-sGUxjxl8f0-22" style="edgeStyle=orthogonalEdgeStyle;rounded=0;orthogonalLoop=1;jettySize=auto;html=1;exitX=1;exitY=0.5;exitDx=0;exitDy=0;entryX=0;entryY=0.5;entryDx=0;entryDy=0;" edge="1" parent="1" source="0cMiXbIXL-sGUxjxl8f0-11" target="0cMiXbIXL-sGUxjxl8f0-12">
          <mxGeometry relative="1" as="geometry" />
        </mxCell>
        <mxCell id="0cMiXbIXL-sGUxjxl8f0-11" value="B" style="ellipse;whiteSpace=wrap;html=1;aspect=fixed;" vertex="1" parent="1">
          <mxGeometry x="399" y="360" width="30" height="30" as="geometry" />
        </mxCell>
        <mxCell id="0cMiXbIXL-sGUxjxl8f0-23" style="edgeStyle=orthogonalEdgeStyle;rounded=0;orthogonalLoop=1;jettySize=auto;html=1;exitX=1;exitY=0.5;exitDx=0;exitDy=0;entryX=0;entryY=0.5;entryDx=0;entryDy=0;" edge="1" parent="1" source="0cMiXbIXL-sGUxjxl8f0-12" target="0cMiXbIXL-sGUxjxl8f0-13">
          <mxGeometry relative="1" as="geometry" />
        </mxCell>
        <mxCell id="0cMiXbIXL-sGUxjxl8f0-12" value="B" style="ellipse;whiteSpace=wrap;html=1;aspect=fixed;" vertex="1" parent="1">
          <mxGeometry x="490" y="305" width="30" height="30" as="geometry" />
        </mxCell>
        <mxCell id="0cMiXbIXL-sGUxjxl8f0-13" value="C" style="ellipse;whiteSpace=wrap;html=1;aspect=fixed;" vertex="1" parent="1">
          <mxGeometry x="570" y="305" width="30" height="30" as="geometry" />
        </mxCell>
      </root>
    </mxGraphModel>
  </diagram>
</mxfile>
